<svg xmlns="http://www.w3.org/2000/svg" viewBox="0 0 1000 320" preserveAspectRatio="xMidYMid meet" role="img" aria-labelledby="title desc">
  <title id="title">Chetesaí Fitness+ · Carga tus energías</title>
  <desc id="desc">Identidad Chetesaí Fitness+ en azul noche y dorado con monograma F, media luna y lema.</desc>

  <g transform="translate(38 22)">
    <path d="M236 24C126 10 53 77 53 159c0 87 73 143 173 132-78-16-130-61-130-132 0-65 50-113 140-135z" fill="#07182B"/>
    <path d="M237 38c-73-8-124 29-151 79 33-42 78-63 143-55 26 3 48 11 67 23-14-22-33-39-59-47z" fill="#C69A39"/>
    <path d="M214 42C130 41 78 92 78 160c0 70 55 117 136 118-63-13-101-56-101-118 0-59 36-101 101-118z" fill="#F7F6F1"/>
    <text x="112" y="221" font-family="Georgia,'Times New Roman',serif" font-size="150" font-weight="700" fill="#07182B">F</text>
    <path d="M235 115l9 30 30 9-30 9-9 30-9-30-30-9 30-9z" fill="#C69A39"/>
  </g>

  <line x1="332" y1="58" x2="332" y2="260" stroke="#C69A39" stroke-width="2"/>

  <g transform="translate(382 54)">
    <text x="0" y="78" font-family="Georgia,'Times New Roman',serif" font-size="72" font-weight="700" letter-spacing="3" fill="#07182B">CHETESAÍ</text>
    <text x="8" y="150" font-family="Arial,Helvetica,sans-serif" font-size="58" font-weight="600" letter-spacing="15" fill="#07182B">FITNESS</text>
    <text x="418" y="150" font-family="Arial,Helvetica,sans-serif" font-size="66" font-weight="700" fill="#C69A39">+</text>
    <line x1="0" y1="196" x2="58" y2="196" stroke="#C69A39" stroke-width="3"/>
    <text x="76" y="210" font-family="Georgia,'Times New Roman',serif" font-size="34" font-style="italic" fill="#26364A">Carga tus energías</text>
    <line x1="392" y1="196" x2="450" y2="196" stroke="#C69A39" stroke-width="3"/>
  </g>
</svg>
