<svg xmlns="http://www.w3.org/2000/svg" viewBox="0 0 980 620" role="img" aria-labelledby="title desc">
  <title id="title">Chetesaí Fitness+ logotipo completo</title>
  <desc id="desc">Símbolo F+ blanco y dorado con nombre Chetesaí Fitness+ y la firma Performance, Nutrition, Wellness</desc>
  <defs>
    <filter id="glow" x="-30%" y="-30%" width="160%" height="160%">
      <feDropShadow dx="0" dy="10" stdDeviation="12" flood-color="#000000" flood-opacity="0.5"/>
    </filter>
  </defs>
  <g filter="url(#glow)">
    <g transform="translate(250 18) scale(.8)">
      <path d="M447 83C323 30 176 66 101 171C30 271 52 414 151 499C229 567 352 575 458 507" fill="none" stroke="#F7F3EA" stroke-width="20" stroke-linecap="round"/>
      <path d="M447 83C477 100 501 121 519 148" fill="none" stroke="#F7F3EA" stroke-width="9" stroke-linecap="round"/>
      <text x="205" y="407" font-family="Georgia, 'Times New Roman', serif" font-size="318" fill="#F7F3EA">F</text>
      <path d="M449 225L463 274L512 288L463 302L449 351L435 302L386 288L435 274Z" fill="#C7A254"/>
    </g>
    <text x="490" y="492" text-anchor="middle" font-family="Arial, Helvetica, sans-serif" font-size="44" font-weight="500" letter-spacing="15" fill="#F7F3EA">CHETESAÍ</text>
    <text x="455" y="548" text-anchor="middle" font-family="Arial, Helvetica, sans-serif" font-size="44" font-weight="600" letter-spacing="12" fill="#C7A254">FITNESS</text>
    <text x="770" y="548" text-anchor="middle" font-family="Arial, Helvetica, sans-serif" font-size="52" font-weight="700" fill="#C7A254">+</text>
    <text x="490" y="590" text-anchor="middle" font-family="Arial, Helvetica, sans-serif" font-size="18" font-weight="500" letter-spacing="7" fill="#DED7C9">PERFORMANCE · NUTRITION · WELLNESS</text>
  </g>
</svg>
